<svg xmlns="http://www.w3.org/2000/svg" viewBox="0 0 495 206.65"><defs><style>.cls-1{fill:#0074b7;}.cls-2,.cls-3{fill:#f2f2f2;}.cls-2{fill-rule:evenodd;}.cls-4{font-size:16.92px;fill:#60a3d9;font-family:OpenSans-Regular, Open Sans;letter-spacing:-0.02em;}</style></defs><title>top-left2</title><g id="Layer_2" data-name="Layer 2"><g id="Layer_1-2" data-name="Layer 1"><path class="cls-1" d="M0,0V206.65a1808.84,1808.84,0,0,0,233.3-75.8q14.8-5.94,29.49-12.15,31.2-13.17,61.74-27.47A1785.9,1785.9,0,0,0,492.77,1.35L495,0ZM178.11,53.16a35.62,35.62,0,0,1-11.94,5.66A50,50,0,0,0,173,49a12,12,0,0,1-12-12V33.37A60.48,60.48,0,0,1,178.11,53.16Z"/><path class="cls-2" d="M185.34,81.82a60.39,60.39,0,0,1-41.26,57.29c-3.06.6-4.15-1.29-4.15-2.89,0-2,.07-8.5.07-16.58,0-5.63-1.93-9.31-4.1-11.18,13.45-1.49,27.58-6.6,27.58-29.8a23.26,23.26,0,0,0-6.22-16.2c.63-1.53,2.7-7.67-.59-16,0,0-5.06-1.62-16.59,6.19a57.32,57.32,0,0,0-30.24,0c-11.54-7.81-16.61-6.19-16.61-6.19-3.28,8.32-1.21,14.46-.59,16a23.35,23.35,0,0,0-6.22,16.2c0,23.14,14.1,28.32,27.51,29.85a12.88,12.88,0,0,0-3.83,8.07c-3.45,1.55-12.19,4.22-17.57-5,0,0-3.2-5.79-9.26-6.22,0,0-5.89-.08-.41,3.67,0,0,4,1.86,6.7,8.84,0,0,3.55,10.78,20.35,7.12,0,5.05.08,9.81.08,11.25,0,1.59-1.11,3.46-4.13,2.9A60.39,60.39,0,1,1,161,33.37V37a12,12,0,0,0,12,12,50,50,0,0,1-6.83,9.82,35.62,35.62,0,0,0,11.94-5.66A60,60,0,0,1,185.34,81.82Z"/><path class="cls-3" d="M87.44,108.13c-.14.31-.61.39-1,.19s-.68-.61-.54-.91.6-.39,1-.19.69.61.54.91Z"/><path class="cls-3" d="M89.88,110.86c-.28.27-.85.15-1.23-.28a.92.92,0,0,1-.18-1.25c.3-.27.85-.14,1.24.28s.47,1,.17,1.25Z"/><path class="cls-3" d="M92.26,114.34c-.37.26-1,0-1.34-.52s-.38-1.18,0-1.44,1,0,1.35.51.37,1.19,0,1.45Z"/><path class="cls-3" d="M95.53,117.7c-.33.37-1,.27-1.56-.23s-.67-1.18-.34-1.54,1.05-.27,1.57.23.68,1.18.33,1.54Z"/><path class="cls-3" d="M100,119.65c-.15.47-.83.69-1.51.49s-1.13-.76-1-1.24.82-.7,1.51-.49,1.13.76,1,1.24Z"/><path class="cls-3" d="M105,120c0,.5-.56.91-1.28.92s-1.31-.38-1.32-.87.57-.91,1.29-.93,1.31.39,1.31.88Z"/><path class="cls-3" d="M109.57,119.23c.08.49-.42,1-1.13,1.12s-1.35-.17-1.44-.66.42-1,1.12-1.12,1.36.17,1.45.66Z"/><path class="cls-1" d="M166.17,58.82A50,50,0,0,0,173,49a12,12,0,0,1-12-12V33.37a60.48,60.48,0,0,1,17.11,19.79A35.62,35.62,0,0,1,166.17,58.82Z"/><path class="cls-3" d="M284,31v6a12,12,0,0,1-12,12H182.91a35.2,35.2,0,0,1-4.8,4.16A60.48,60.48,0,0,0,161,33.37V31a12,12,0,0,1,12-12h99A12,12,0,0,1,284,31Z"/><text class="cls-4" transform="translate(170.33 39.68)">Search Github</text></g></g></svg>