<svg xmlns="http://www.w3.org/2000/svg" viewBox="0 0 495 206.65"><defs><style>.cls-1{fill:#0074b7;}.cls-2,.cls-3{fill:#f2f2f2;}.cls-2{fill-rule:evenodd;}</style></defs><title>top-left</title><g id="Layer_2" data-name="Layer 2"><g id="Layer_1-2" data-name="Layer 1"><path class="cls-1" d="M495,0l-2.23,1.35A1785.9,1785.9,0,0,1,324.53,91.23Q294,105.53,262.79,118.7q-14.67,6.19-29.49,12.15A1808.84,1808.84,0,0,1,0,206.65V0Z"/><path class="cls-2" d="M125,21.43a60.4,60.4,0,0,0-19.09,117.69c3,.56,4.13-1.31,4.13-2.9,0-1.44-.06-6.2-.08-11.25-16.8,3.66-20.35-7.12-20.35-7.12-2.75-7-6.7-8.84-6.7-8.84-5.48-3.75.41-3.67.41-3.67,6.06.43,9.26,6.22,9.26,6.22,5.38,9.24,14.12,6.57,17.57,5a12.88,12.88,0,0,1,3.83-8.07C100.52,107,86.42,101.8,86.42,78.66a23.35,23.35,0,0,1,6.22-16.2c-.62-1.53-2.69-7.67.59-16,0,0,5.07-1.62,16.61,6.19a57.32,57.32,0,0,1,30.24,0c11.53-7.81,16.59-6.19,16.59-6.19,3.29,8.32,1.22,14.46.59,16a23.26,23.26,0,0,1,6.22,16.2c0,23.2-14.13,28.31-27.58,29.8,2.17,1.87,4.1,5.55,4.1,11.18,0,8.08-.07,14.59-.07,16.58,0,1.6,1.09,3.49,4.15,2.89A60.4,60.4,0,0,0,125,21.43Z"/><path class="cls-3" d="M87.44,108.13c-.14.31-.61.39-1,.19s-.68-.61-.54-.91.6-.39,1-.19.69.61.54.91Z"/><path class="cls-3" d="M89.88,110.86c-.28.27-.85.15-1.23-.28a.92.92,0,0,1-.18-1.25c.3-.27.85-.14,1.24.28s.47,1,.17,1.25Z"/><path class="cls-3" d="M92.26,114.34c-.37.26-1,0-1.34-.52s-.38-1.18,0-1.44,1,0,1.35.51.37,1.19,0,1.45Z"/><path class="cls-3" d="M95.53,117.7c-.33.37-1,.27-1.56-.23s-.67-1.18-.34-1.54,1.05-.27,1.57.23.68,1.18.33,1.54Z"/><path class="cls-3" d="M100,119.65c-.15.47-.83.69-1.51.49s-1.13-.76-1-1.24.82-.7,1.51-.49,1.13.76,1,1.24Z"/><path class="cls-3" d="M105,120c0,.5-.56.91-1.28.92s-1.31-.38-1.32-.87.57-.91,1.29-.93,1.31.39,1.31.88Z"/><path class="cls-3" d="M109.57,119.23c.08.49-.42,1-1.13,1.12s-1.35-.17-1.44-.66.42-1,1.12-1.12,1.36.17,1.45.66Z"/></g></g></svg>